<svg xmlns="http://www.w3.org/2000/svg" width="1200" height="1062" viewBox="0 0 1200 1062" font-family="'Segoe UI', 'Helvetica Neue', Arial, sans-serif" role="img" aria-labelledby="t d"><title id="t">UC-04 — MSME 45-day payment exposure</title><desc id="d">Which small suppliers are we about to pay late, and what will it cost us?</desc><rect width="1200" height="1062" fill="#fbfcfd"/><rect x="0" y="0" width="1200" height="106" fill="#2f3c9e"/><text x="40" y="38" font-size="14" fill="#ffffff" font-weight="bold" text-anchor="start" letter-spacing="1.5">UC-04  ·  INDIA · GST</text><text x="40" y="74" font-size="26" fill="#ffffff" font-weight="bold" text-anchor="start">MSME 45-day payment exposure</text><rect x="930" y="22" width="230" height="62" rx="12" fill="#ffffff" stroke="none" stroke-width="1"/><text x="1045.0" y="50" font-size="15" fill="#1a7f37" font-weight="bold" text-anchor="middle" letter-spacing="1.5">BUILDABLE</text><text x="1045.0" y="70" font-size="12" fill="#57606a" font-weight="normal" text-anchor="middle">Buildable now · 7 live breaches</text><circle cx="948" cy="45" r="6" fill="#1a7f37"/><rect x="40" y="124" width="127.52000000000001" height="24" rx="12" fill="#eef0fb" stroke="none" stroke-width="1"/><text x="103.76" y="140.5" font-size="12" fill="#2f3c9e" font-weight="bold" text-anchor="middle">Payables control</text><rect x="175.52" y="124" width="134.24" height="24" rx="12" fill="#f0f2f4" stroke="none" stroke-width="1"/><text x="242.64000000000001" y="140.5" font-size="12" fill="#1f2328" font-weight="bold" text-anchor="middle">Domains: all five</text><rect x="317.76" y="124" width="114.08000000000001" height="24" rx="12" fill="#f0f2f4" stroke="none" stroke-width="1"/><text x="374.8" y="140.5" font-size="12" fill="#1f2328" font-weight="bold" text-anchor="middle">Playbook: msme</text><rect x="40" y="166" width="1120" height="63" rx="14" fill="#eef0fb" stroke="none" stroke-width="1"/><text x="66" y="212" font-size="38" fill="#2f3c9e" font-weight="bold" text-anchor="start">?</text><text x="110" y="203" font-size="21" fill="#1f2328" font-weight="normal" text-anchor="start" font-style="italic">“Which small suppliers are we about to pay late, and what will it cost us?”</text><rect x="40.0" y="251" width="361.3333333333333" height="210" rx="10" fill="#ffffff" stroke="#d0d7de" stroke-width="1"/><rect x="40.0" y="251" width="5" height="210" rx="2" fill="#2f3c9e"/><circle cx="72.0" cy="281" r="14" fill="#2f3c9e" opacity="0.12"/><text x="72.0" y="286" font-size="14" fill="#2f3c9e" font-weight="bold" text-anchor="middle">§</text><text x="94.0" y="286" font-size="13" fill="#2f3c9e" font-weight="bold" text-anchor="start" letter-spacing="1">BASIS</text><circle cx="66.0" cy="319" r="3.5" fill="#2f3c9e"/><text x="78.0" y="323" font-size="14" fill="#1f2328" font-weight="normal" text-anchor="start">MSMED Act s.15: pay within agreed term,</text><text x="78.0" y="343" font-size="14" fill="#1f2328" font-weight="normal" text-anchor="start">max 45 days</text><circle cx="66.0" cy="365" r="3.5" fill="#2f3c9e"/><text x="78.0" y="369" font-size="14" fill="#1f2328" font-weight="normal" text-anchor="start">s.16: compound interest at 3× the RBI bank</text><text x="78.0" y="389" font-size="14" fill="#1f2328" font-weight="normal" text-anchor="start">rate</text><circle cx="66.0" cy="411" r="3.5" fill="#2f3c9e"/><text x="78.0" y="415" font-size="14" fill="#1f2328" font-weight="normal" text-anchor="start">Income-tax s.43B(h): unpaid amount</text><text x="78.0" y="435" font-size="14" fill="#1f2328" font-weight="normal" text-anchor="start">disallowed (micro and small only)</text><rect x="419.3333333333333" y="251" width="361.3333333333333" height="210" rx="10" fill="#ffffff" stroke="#d0d7de" stroke-width="1"/><rect x="419.3333333333333" y="251" width="5" height="210" rx="2" fill="#2f3c9e"/><circle cx="451.3333333333333" cy="281" r="14" fill="#2f3c9e" opacity="0.12"/><text x="451.3333333333333" y="286" font-size="14" fill="#2f3c9e" font-weight="bold" text-anchor="middle">⏱</text><text x="473.3333333333333" y="286" font-size="13" fill="#2f3c9e" font-weight="bold" text-anchor="start" letter-spacing="1">TRIGGER</text><circle cx="445.3333333333333" cy="319" r="3.5" fill="#2f3c9e"/><text x="457.3333333333333" y="323" font-size="14" fill="#1f2328" font-weight="normal" text-anchor="start">Daily: the 45-day line moves every day</text><circle cx="445.3333333333333" cy="345" r="3.5" fill="#2f3c9e"/><text x="457.3333333333333" y="349" font-size="14" fill="#1f2328" font-weight="normal" text-anchor="start">On request</text><circle cx="445.3333333333333" cy="371" r="3.5" fill="#2f3c9e"/><text x="457.3333333333333" y="375" font-size="14" fill="#1f2328" font-weight="normal" text-anchor="start">Point-in-time age</text><rect x="798.6666666666666" y="251" width="361.3333333333333" height="210" rx="10" fill="#ffffff" stroke="#d0d7de" stroke-width="1"/><rect x="798.6666666666666" y="251" width="5" height="210" rx="2" fill="#2f3c9e"/><circle cx="830.6666666666666" cy="281" r="14" fill="#2f3c9e" opacity="0.12"/><text x="830.6666666666666" y="286" font-size="14" fill="#2f3c9e" font-weight="bold" text-anchor="middle">⇩</text><text x="852.6666666666666" y="286" font-size="13" fill="#2f3c9e" font-weight="bold" text-anchor="start" letter-spacing="1">DATA IN</text><rect x="820.6666666666666" y="309" width="85.2" height="24" rx="6" fill="#eef0fb" stroke="none" stroke-width="1"/><text x="829.6666666666666" y="325.5" font-size="12" fill="#2f3c9e" font-weight="bold" text-anchor="start">Party.list</text><rect x="911.8666666666667" y="309" width="78.48" height="24" rx="6" fill="#eef0fb" stroke="none" stroke-width="1"/><text x="920.8666666666667" y="325.5" font-size="12" fill="#2f3c9e" font-weight="bold" text-anchor="start">Bill.list</text><text x="40" y="491" font-size="13" fill="#2f3c9e" font-weight="bold" text-anchor="start" letter-spacing="1">HOW THE AGENT ANSWERS IT</text><line x1="270" y1="487" x2="1160" y2="487" stroke="#d0d7de"/><rect x="40.0" y="507" width="353.3333333333333" height="102" rx="12" fill="#ffffff" stroke="#d0d7de" stroke-width="1"/><circle cx="66.0" cy="533" r="14" fill="#2f3c9e"/><text x="66.0" y="538" font-size="14" fill="#ffffff" font-weight="bold" text-anchor="middle">1</text><text x="54.0" y="571" font-size="15" fill="#1f2328" font-weight="bold" text-anchor="start">MSME vendors</text><text x="54.0" y="593" font-size="14" fill="#57606a" font-weight="normal" text-anchor="start">Party with is_msme = true</text><path d="M397.3333333333333 558.0 L417.3333333333333 558.0" stroke="#2f3c9e" stroke-width="2.5"/><path d="M413.3333333333333 552.0 L421.3333333333333 558.0 L413.3333333333333 564.0" fill="none" stroke="#2f3c9e" stroke-width="2.5"/><rect x="423.3333333333333" y="507" width="353.3333333333333" height="102" rx="12" fill="#ffffff" stroke="#d0d7de" stroke-width="1"/><circle cx="449.3333333333333" cy="533" r="14" fill="#2f3c9e"/><text x="449.3333333333333" y="538" font-size="14" fill="#ffffff" font-weight="bold" text-anchor="middle">2</text><text x="437.3333333333333" y="571" font-size="15" fill="#1f2328" font-weight="bold" text-anchor="start">Their open bills</text><text x="437.3333333333333" y="593" font-size="14" fill="#57606a" font-weight="normal" text-anchor="start">balance_due &gt; 0</text><path d="M780.6666666666666 558.0 L800.6666666666666 558.0" stroke="#2f3c9e" stroke-width="2.5"/><path d="M796.6666666666666 552.0 L804.6666666666666 558.0 L796.6666666666666 564.0" fill="none" stroke="#2f3c9e" stroke-width="2.5"/><rect x="806.6666666666666" y="507" width="353.3333333333333" height="102" rx="12" fill="#ffffff" stroke="#d0d7de" stroke-width="1"/><circle cx="832.6666666666666" cy="533" r="14" fill="#2f3c9e"/><text x="832.6666666666666" y="538" font-size="14" fill="#ffffff" font-weight="bold" text-anchor="middle">3</text><text x="820.6666666666666" y="571" font-size="15" fill="#1f2328" font-weight="bold" text-anchor="start">Deadline</text><text x="820.6666666666666" y="593" font-size="14" fill="#57606a" font-weight="normal" text-anchor="start">min(bill date + 45, agreed term)</text><rect x="40.0" y="625" width="353.3333333333333" height="122" rx="12" fill="#ffffff" stroke="#d0d7de" stroke-width="1"/><circle cx="66.0" cy="651" r="14" fill="#2f3c9e"/><text x="66.0" y="656" font-size="14" fill="#ffffff" font-weight="bold" text-anchor="middle">4</text><text x="54.0" y="689" font-size="15" fill="#1f2328" font-weight="bold" text-anchor="start">Breach and age</text><text x="54.0" y="711" font-size="14" fill="#57606a" font-weight="normal" text-anchor="start">Days past the deadline</text><path d="M397.3333333333333 686.0 L417.3333333333333 686.0" stroke="#2f3c9e" stroke-width="2.5"/><path d="M413.3333333333333 680.0 L421.3333333333333 686.0 L413.3333333333333 692.0" fill="none" stroke="#2f3c9e" stroke-width="2.5"/><rect x="423.3333333333333" y="625" width="353.3333333333333" height="122" rx="12" fill="#ffffff" stroke="#d0d7de" stroke-width="1"/><circle cx="449.3333333333333" cy="651" r="14" fill="#2f3c9e"/><text x="449.3333333333333" y="656" font-size="14" fill="#ffffff" font-weight="bold" text-anchor="middle">5</text><text x="437.3333333333333" y="689" font-size="15" fill="#1f2328" font-weight="bold" text-anchor="start">Penal interest</text><text x="437.3333333333333" y="711" font-size="14" fill="#57606a" font-weight="normal" text-anchor="start">3× RBI rate, compounded monthly</text><path d="M780.6666666666666 686.0 L800.6666666666666 686.0" stroke="#2f3c9e" stroke-width="2.5"/><path d="M796.6666666666666 680.0 L804.6666666666666 686.0 L796.6666666666666 692.0" fill="none" stroke="#2f3c9e" stroke-width="2.5"/><rect x="806.6666666666666" y="625" width="353.3333333333333" height="122" rx="12" fill="#ffffff" stroke="#d0d7de" stroke-width="1"/><circle cx="832.6666666666666" cy="651" r="14" fill="#2f3c9e"/><text x="832.6666666666666" y="656" font-size="14" fill="#ffffff" font-weight="bold" text-anchor="middle">6</text><text x="820.6666666666666" y="689" font-size="15" fill="#1f2328" font-weight="bold" text-anchor="start">43B(h) risk</text><text x="820.6666666666666" y="711" font-size="14" fill="#57606a" font-weight="normal" text-anchor="start">Micro and small: deduction disallowed until</text><text x="820.6666666666666" y="731" font-size="14" fill="#57606a" font-weight="normal" text-anchor="start">paid</text><rect x="40" y="773" width="551.0" height="170" rx="10" fill="#ffffff" stroke="#d0d7de" stroke-width="1"/><rect x="40" y="773" width="5" height="170" rx="2" fill="#2f3c9e"/><circle cx="72" cy="803" r="14" fill="#2f3c9e" opacity="0.12"/><text x="72" y="808" font-size="14" fill="#2f3c9e" font-weight="bold" text-anchor="middle">!</text><text x="94" y="808" font-size="13" fill="#2f3c9e" font-weight="bold" text-anchor="start" letter-spacing="1">FINDINGS IT EMITS</text><rect x="62" y="832" width="8" height="8" rx="2" fill="#2f3c9e"/><text x="78" y="841" font-size="13" fill="#1f2328" font-weight="normal" text-anchor="start">msme_45_day_exposure: bill past its deadline, with penal interest</text><rect x="62" y="858" width="8" height="8" rx="2" fill="#2f3c9e"/><text x="78" y="867" font-size="13" fill="#1f2328" font-weight="normal" text-anchor="start">s43b_h_disallowance_amount on micro and small vendors</text><rect x="62" y="884" width="8" height="8" rx="2" fill="#2f3c9e"/><text x="78" y="893" font-size="13" fill="#1f2328" font-weight="normal" text-anchor="start">missing_required_field: msme_no blank</text><rect x="609.0" y="773" width="551.0" height="170" rx="10" fill="#e8f5ec" stroke="none" stroke-width="1"/><text x="631.0" y="808" font-size="13" fill="#1a7f37" font-weight="bold" text-anchor="start" letter-spacing="1">LIVE EVIDENCE · 28 SEP 2026</text><text x="631.0" y="867" font-size="40" fill="#1a7f37" font-weight="bold" text-anchor="start">7 breaches</text><text x="631.0" y="893" font-size="14" fill="#1f2328" font-weight="normal" text-anchor="start">Worst is 68 days over (₹5,85,162). msme_no is blank on all 8 MSME</text><text x="631.0" y="913" font-size="14" fill="#1f2328" font-weight="normal" text-anchor="start">parties.</text><rect x="40" y="961" width="1120" height="39" rx="8" fill="#f6f8fa" stroke="none" stroke-width="1"/><text x="60" y="985" font-size="13" fill="#57606a" font-weight="normal" text-anchor="start">Limits: Uses the bill date as acceptance date; the agreed term is not in the data.</text><line x1="40" y1="1018" x2="1160" y2="1018" stroke="#d0d7de"/><text x="40" y="1042" font-size="12" fill="#57606a" font-weight="normal" text-anchor="start">Team 03 · Seat 03 Payables &amp; Tax · Suryodaya Precision Works Pvt. Ltd.</text><text x="1160" y="1042" font-size="12" fill="#57606a" font-weight="normal" text-anchor="end">Spec: IN/uc-04-msme-45-day-exposure.md</text></svg>
