<svg xmlns="http://www.w3.org/2000/svg" width="1200" height="998" viewBox="0 0 1200 998" font-family="'Segoe UI', 'Helvetica Neue', Arial, sans-serif" role="img" aria-labelledby="t d"><title id="t">UC-35 — Agency: recharges and the pure-agent test (Rule 33)</title><desc id="d">When we pass client costs back to them, are we charging GST correctly on the recharge?</desc><rect width="1200" height="998" fill="#fbfcfd"/><rect x="0" y="0" width="1200" height="122" fill="#2f3c9e"/><text x="40" y="38" font-size="14" fill="#ffffff" font-weight="bold" text-anchor="start" letter-spacing="1.5">UC-35  ·  INDIA · GST</text><text x="40" y="74" font-size="26" fill="#ffffff" font-weight="bold" text-anchor="start">Agency: recharges and the pure-agent test (Rule 33)</text><rect x="930" y="22" width="230" height="78" rx="12" fill="#ffffff" stroke="none" stroke-width="1"/><text x="1045.0" y="50" font-size="15" fill="#9a6700" font-weight="bold" text-anchor="middle" letter-spacing="1.5">PARTIAL</text><text x="1045.0" y="70" font-size="12" fill="#57606a" font-weight="normal" text-anchor="middle">Partial · expense-invoice link</text><text x="1045.0" y="86" font-size="12" fill="#57606a" font-weight="normal" text-anchor="middle">missing</text><circle cx="948" cy="45" r="6" fill="#9a6700"/><rect x="40" y="140" width="87.2" height="24" rx="12" fill="#eef0fb" stroke="none" stroke-width="1"/><text x="83.6" y="156.5" font-size="12" fill="#2f3c9e" font-weight="bold" text-anchor="middle">Output tax</text><rect x="135.2" y="140" width="120.80000000000001" height="24" rx="12" fill="#f0f2f4" stroke="none" stroke-width="1"/><text x="195.6" y="156.5" font-size="12" fill="#1f2328" font-weight="bold" text-anchor="middle">Domains: agency</text><rect x="264.0" y="140" width="147.68" height="24" rx="12" fill="#f0f2f4" stroke="none" stroke-width="1"/><text x="337.84000000000003" y="156.5" font-size="12" fill="#1f2328" font-weight="bold" text-anchor="middle">Playbook: recharges</text><rect x="40" y="182" width="1120" height="63" rx="14" fill="#eef0fb" stroke="none" stroke-width="1"/><text x="66" y="228" font-size="38" fill="#2f3c9e" font-weight="bold" text-anchor="start">?</text><text x="110" y="219" font-size="21" fill="#1f2328" font-weight="normal" text-anchor="start" font-style="italic">“When we pass client costs back to them, are we charging GST correctly on the recharge?”</text><rect x="40.0" y="267" width="361.3333333333333" height="170" rx="10" fill="#ffffff" stroke="#d0d7de" stroke-width="1"/><rect x="40.0" y="267" width="5" height="170" rx="2" fill="#2f3c9e"/><circle cx="72.0" cy="297" r="14" fill="#2f3c9e" opacity="0.12"/><text x="72.0" y="302" font-size="14" fill="#2f3c9e" font-weight="bold" text-anchor="middle">§</text><text x="94.0" y="302" font-size="13" fill="#2f3c9e" font-weight="bold" text-anchor="start" letter-spacing="1">BASIS</text><circle cx="66.0" cy="335" r="3.5" fill="#2f3c9e"/><text x="78.0" y="339" font-size="14" fill="#1f2328" font-weight="normal" text-anchor="start">s.15(2)(c): incidental costs are part of</text><text x="78.0" y="359" font-size="14" fill="#1f2328" font-weight="normal" text-anchor="start">value</text><circle cx="66.0" cy="381" r="3.5" fill="#2f3c9e"/><text x="78.0" y="385" font-size="14" fill="#1f2328" font-weight="normal" text-anchor="start">Rule 33: pure-agent costs excluded</text><circle cx="66.0" cy="407" r="3.5" fill="#2f3c9e"/><text x="78.0" y="411" font-size="14" fill="#1f2328" font-weight="normal" text-anchor="start">Pure agent can&#x27;t also claim the credit</text><rect x="419.3333333333333" y="267" width="361.3333333333333" height="170" rx="10" fill="#ffffff" stroke="#d0d7de" stroke-width="1"/><rect x="419.3333333333333" y="267" width="5" height="170" rx="2" fill="#2f3c9e"/><circle cx="451.3333333333333" cy="297" r="14" fill="#2f3c9e" opacity="0.12"/><text x="451.3333333333333" y="302" font-size="14" fill="#2f3c9e" font-weight="bold" text-anchor="middle">⏱</text><text x="473.3333333333333" y="302" font-size="13" fill="#2f3c9e" font-weight="bold" text-anchor="start" letter-spacing="1">TRIGGER</text><circle cx="445.3333333333333" cy="335" r="3.5" fill="#2f3c9e"/><text x="457.3333333333333" y="339" font-size="14" fill="#1f2328" font-weight="normal" text-anchor="start">On invoice with billable expenses</text><circle cx="445.3333333333333" cy="361" r="3.5" fill="#2f3c9e"/><text x="457.3333333333333" y="365" font-size="14" fill="#1f2328" font-weight="normal" text-anchor="start">Monthly before GSTR-1</text><circle cx="445.3333333333333" cy="387" r="3.5" fill="#2f3c9e"/><text x="457.3333333333333" y="391" font-size="14" fill="#1f2328" font-weight="normal" text-anchor="start">On request</text><rect x="798.6666666666666" y="267" width="361.3333333333333" height="170" rx="10" fill="#ffffff" stroke="#d0d7de" stroke-width="1"/><rect x="798.6666666666666" y="267" width="5" height="170" rx="2" fill="#2f3c9e"/><circle cx="830.6666666666666" cy="297" r="14" fill="#2f3c9e" opacity="0.12"/><text x="830.6666666666666" y="302" font-size="14" fill="#2f3c9e" font-weight="bold" text-anchor="middle">⇩</text><text x="852.6666666666666" y="302" font-size="13" fill="#2f3c9e" font-weight="bold" text-anchor="start" letter-spacing="1">DATA IN</text><rect x="820.6666666666666" y="325" width="98.64000000000001" height="24" rx="6" fill="#eef0fb" stroke="none" stroke-width="1"/><text x="829.6666666666666" y="341.5" font-size="12" fill="#2f3c9e" font-weight="bold" text-anchor="start">Expense.list</text><rect x="925.3066666666666" y="325" width="98.64000000000001" height="24" rx="6" fill="#eef0fb" stroke="none" stroke-width="1"/><text x="934.3066666666666" y="341.5" font-size="12" fill="#2f3c9e" font-weight="bold" text-anchor="start">Invoice.list</text><rect x="820.6666666666666" y="355" width="172.56" height="24" rx="6" fill="#eef0fb" stroke="none" stroke-width="1"/><text x="829.6666666666666" y="371.5" font-size="12" fill="#2f3c9e" font-weight="bold" text-anchor="start">GeneralPreferences.list</text><text x="40" y="467" font-size="13" fill="#2f3c9e" font-weight="bold" text-anchor="start" letter-spacing="1">HOW THE AGENT ANSWERS IT</text><line x1="270" y1="463" x2="1160" y2="463" stroke="#d0d7de"/><rect x="40.0" y="483" width="353.3333333333333" height="102" rx="12" fill="#ffffff" stroke="#d0d7de" stroke-width="1"/><circle cx="66.0" cy="509" r="14" fill="#2f3c9e"/><text x="66.0" y="514" font-size="14" fill="#ffffff" font-weight="bold" text-anchor="middle">1</text><text x="54.0" y="547" font-size="15" fill="#1f2328" font-weight="bold" text-anchor="start">Recharged expenses</text><text x="54.0" y="569" font-size="14" fill="#57606a" font-weight="normal" text-anchor="start">Billable and invoiced</text><path d="M397.3333333333333 534.0 L417.3333333333333 534.0" stroke="#2f3c9e" stroke-width="2.5"/><path d="M413.3333333333333 528.0 L421.3333333333333 534.0 L413.3333333333333 540.0" fill="none" stroke="#2f3c9e" stroke-width="2.5"/><rect x="423.3333333333333" y="483" width="353.3333333333333" height="102" rx="12" fill="#ffffff" stroke="#d0d7de" stroke-width="1"/><circle cx="449.3333333333333" cy="509" r="14" fill="#2f3c9e"/><text x="449.3333333333333" y="514" font-size="14" fill="#ffffff" font-weight="bold" text-anchor="middle">2</text><text x="437.3333333333333" y="547" font-size="15" fill="#1f2328" font-weight="bold" text-anchor="start">Link</text><text x="437.3333333333333" y="569" font-size="14" fill="#57606a" font-weight="normal" text-anchor="start">Invoice.expense_id, else match</text><path d="M780.6666666666666 534.0 L800.6666666666666 534.0" stroke="#2f3c9e" stroke-width="2.5"/><path d="M796.6666666666666 528.0 L804.6666666666666 534.0 L796.6666666666666 540.0" fill="none" stroke="#2f3c9e" stroke-width="2.5"/><rect x="806.6666666666666" y="483" width="353.3333333333333" height="102" rx="12" fill="#ffffff" stroke="#d0d7de" stroke-width="1"/><circle cx="832.6666666666666" cy="509" r="14" fill="#2f3c9e"/><text x="832.6666666666666" y="514" font-size="14" fill="#ffffff" font-weight="bold" text-anchor="middle">3</text><text x="820.6666666666666" y="547" font-size="15" fill="#1f2328" font-weight="bold" text-anchor="start">Pure-agent test</text><text x="820.6666666666666" y="569" font-size="14" fill="#57606a" font-weight="normal" text-anchor="start">Rule 33 conditions</text><rect x="40.0" y="601" width="353.3333333333333" height="102" rx="12" fill="#ffffff" stroke="#d0d7de" stroke-width="1"/><circle cx="66.0" cy="627" r="14" fill="#2f3c9e"/><text x="66.0" y="632" font-size="14" fill="#ffffff" font-weight="bold" text-anchor="middle">4</text><text x="54.0" y="665" font-size="15" fill="#1f2328" font-weight="bold" text-anchor="start">Undertaxed</text><text x="54.0" y="687" font-size="14" fill="#57606a" font-weight="normal" text-anchor="start">Recharge below service rate</text><path d="M397.3333333333333 652.0 L417.3333333333333 652.0" stroke="#2f3c9e" stroke-width="2.5"/><path d="M413.3333333333333 646.0 L421.3333333333333 652.0 L413.3333333333333 658.0" fill="none" stroke="#2f3c9e" stroke-width="2.5"/><rect x="423.3333333333333" y="601" width="353.3333333333333" height="102" rx="12" fill="#ffffff" stroke="#d0d7de" stroke-width="1"/><circle cx="449.3333333333333" cy="627" r="14" fill="#2f3c9e"/><text x="449.3333333333333" y="632" font-size="14" fill="#ffffff" font-weight="bold" text-anchor="middle">5</text><text x="437.3333333333333" y="665" font-size="15" fill="#1f2328" font-weight="bold" text-anchor="start">Credit conflict</text><text x="437.3333333333333" y="687" font-size="14" fill="#57606a" font-weight="normal" text-anchor="start">Excluded yet credit claimed</text><path d="M780.6666666666666 652.0 L800.6666666666666 652.0" stroke="#2f3c9e" stroke-width="2.5"/><path d="M796.6666666666666 646.0 L804.6666666666666 652.0 L796.6666666666666 658.0" fill="none" stroke="#2f3c9e" stroke-width="2.5"/><rect x="806.6666666666666" y="601" width="353.3333333333333" height="102" rx="12" fill="#ffffff" stroke="#d0d7de" stroke-width="1"/><circle cx="832.6666666666666" cy="627" r="14" fill="#2f3c9e"/><text x="832.6666666666666" y="632" font-size="14" fill="#ffffff" font-weight="bold" text-anchor="middle">6</text><text x="820.6666666666666" y="665" font-size="15" fill="#1f2328" font-weight="bold" text-anchor="start">Unbilled</text><text x="820.6666666666666" y="687" font-size="14" fill="#57606a" font-weight="normal" text-anchor="start">Billable, &gt; 60 days</text><rect x="40" y="729" width="551.0" height="150" rx="10" fill="#ffffff" stroke="#d0d7de" stroke-width="1"/><rect x="40" y="729" width="5" height="150" rx="2" fill="#2f3c9e"/><circle cx="72" cy="759" r="14" fill="#2f3c9e" opacity="0.12"/><text x="72" y="764" font-size="14" fill="#2f3c9e" font-weight="bold" text-anchor="middle">!</text><text x="94" y="764" font-size="13" fill="#2f3c9e" font-weight="bold" text-anchor="start" letter-spacing="1">FINDINGS IT EMITS</text><rect x="62" y="788" width="8" height="8" rx="2" fill="#2f3c9e"/><text x="78" y="797" font-size="13" fill="#1f2328" font-weight="normal" text-anchor="start">reimbursement_undertaxed</text><rect x="62" y="814" width="8" height="8" rx="2" fill="#2f3c9e"/><text x="78" y="823" font-size="13" fill="#1f2328" font-weight="normal" text-anchor="start">pure_agent_with_itc</text><rect x="62" y="840" width="8" height="8" rx="2" fill="#2f3c9e"/><text x="78" y="849" font-size="13" fill="#1f2328" font-weight="normal" text-anchor="start">billable_not_recharged</text><rect x="609.0" y="729" width="551.0" height="150" rx="10" fill="#fff4d6" stroke="none" stroke-width="1"/><text x="631.0" y="764" font-size="13" fill="#9a6700" font-weight="bold" text-anchor="start" letter-spacing="1">LIVE EVIDENCE · 4 OCT 2026</text><text x="631.0" y="823" font-size="40" fill="#9a6700" font-weight="bold" text-anchor="start">0 linked</text><text x="631.0" y="849" font-size="14" fill="#1f2328" font-weight="normal" text-anchor="start">15 invoiced billable expenses; no invoice carries expense_id.</text><rect x="40" y="897" width="1120" height="39" rx="8" fill="#f6f8fa" stroke="none" stroke-width="1"/><text x="60" y="921" font-size="13" fill="#57606a" font-weight="normal" text-anchor="start">Limits: Matching is heuristic until expense_id is set.</text><line x1="40" y1="954" x2="1160" y2="954" stroke="#d0d7de"/><text x="40" y="978" font-size="12" fill="#57606a" font-weight="normal" text-anchor="start">Team 03 · Seat 03 Payables &amp; Tax · Suryodaya Precision Works Pvt. Ltd.</text><text x="1160" y="978" font-size="12" fill="#57606a" font-weight="normal" text-anchor="end">Spec: IN/uc-35-agency-pure-agent-reimbursements.md</text></svg>
