<svg xmlns="http://www.w3.org/2000/svg" width="1200" height="978" viewBox="0 0 1200 978" font-family="'Segoe UI', 'Helvetica Neue', Arial, sans-serif" role="img" aria-labelledby="t d"><title id="t">UC-43 — Bank-to-payables reconciliation</title><desc id="d">Does every vendor payment in the bank match a payment in our books, and the other way round?</desc><rect width="1200" height="978" fill="#fbfcfd"/><rect x="0" y="0" width="1200" height="122" fill="#2f3c9e"/><text x="40" y="38" font-size="14" fill="#ffffff" font-weight="bold" text-anchor="start" letter-spacing="1.5">UC-43  ·  INDIA · GST</text><text x="40" y="74" font-size="26" fill="#ffffff" font-weight="bold" text-anchor="start">Bank-to-payables reconciliation</text><rect x="930" y="22" width="230" height="78" rx="12" fill="#ffffff" stroke="none" stroke-width="1"/><text x="1045.0" y="50" font-size="15" fill="#1a7f37" font-weight="bold" text-anchor="middle" letter-spacing="1.5">BUILDABLE</text><text x="1045.0" y="70" font-size="12" fill="#57606a" font-weight="normal" text-anchor="middle">Buildable · bank and AP don&#x27;t</text><text x="1045.0" y="86" font-size="12" fill="#57606a" font-weight="normal" text-anchor="middle">reconcile</text><circle cx="948" cy="45" r="6" fill="#1a7f37"/><rect x="40" y="140" width="127.52000000000001" height="24" rx="12" fill="#eef0fb" stroke="none" stroke-width="1"/><text x="103.76" y="156.5" font-size="12" fill="#2f3c9e" font-weight="bold" text-anchor="middle">Payables control</text><rect x="175.52" y="140" width="134.24" height="24" rx="12" fill="#f0f2f4" stroke="none" stroke-width="1"/><text x="242.64000000000001" y="156.5" font-size="12" fill="#1f2328" font-weight="bold" text-anchor="middle">Domains: all five</text><rect x="317.76" y="140" width="154.4" height="24" rx="12" fill="#f0f2f4" stroke="none" stroke-width="1"/><text x="394.96" y="156.5" font-size="12" fill="#1f2328" font-weight="bold" text-anchor="middle">Playbook: bank-recon</text><rect x="480.15999999999997" y="140" width="93.92" height="24" rx="12" fill="#f0f2f4" stroke="none" stroke-width="1"/><text x="527.12" y="156.5" font-size="12" fill="#1f2328" font-weight="bold" text-anchor="middle">Twin: US-19</text><rect x="40" y="182" width="1120" height="63" rx="14" fill="#eef0fb" stroke="none" stroke-width="1"/><text x="66" y="228" font-size="38" fill="#2f3c9e" font-weight="bold" text-anchor="start">?</text><text x="110" y="219" font-size="21" fill="#1f2328" font-weight="normal" text-anchor="start" font-style="italic">“Does every vendor payment in the bank match a payment in our books, and the other way round?”</text><rect x="40.0" y="267" width="361.3333333333333" height="150" rx="10" fill="#ffffff" stroke="#d0d7de" stroke-width="1"/><rect x="40.0" y="267" width="5" height="150" rx="2" fill="#2f3c9e"/><circle cx="72.0" cy="297" r="14" fill="#2f3c9e" opacity="0.12"/><text x="72.0" y="302" font-size="14" fill="#2f3c9e" font-weight="bold" text-anchor="middle">§</text><text x="94.0" y="302" font-size="13" fill="#2f3c9e" font-weight="bold" text-anchor="start" letter-spacing="1">BASIS</text><circle cx="66.0" cy="335" r="3.5" fill="#2f3c9e"/><text x="78.0" y="339" font-size="14" fill="#1f2328" font-weight="normal" text-anchor="start">Control, not statute</text><circle cx="66.0" cy="361" r="3.5" fill="#2f3c9e"/><text x="78.0" y="365" font-size="14" fill="#1f2328" font-weight="normal" text-anchor="start">Unrecorded payments hide duplicates and</text><text x="78.0" y="385" font-size="14" fill="#1f2328" font-weight="normal" text-anchor="start">fraud</text><rect x="419.3333333333333" y="267" width="361.3333333333333" height="150" rx="10" fill="#ffffff" stroke="#d0d7de" stroke-width="1"/><rect x="419.3333333333333" y="267" width="5" height="150" rx="2" fill="#2f3c9e"/><circle cx="451.3333333333333" cy="297" r="14" fill="#2f3c9e" opacity="0.12"/><text x="451.3333333333333" y="302" font-size="14" fill="#2f3c9e" font-weight="bold" text-anchor="middle">⏱</text><text x="473.3333333333333" y="302" font-size="13" fill="#2f3c9e" font-weight="bold" text-anchor="start" letter-spacing="1">TRIGGER</text><circle cx="445.3333333333333" cy="335" r="3.5" fill="#2f3c9e"/><text x="457.3333333333333" y="339" font-size="14" fill="#1f2328" font-weight="normal" text-anchor="start">On bank debit created</text><circle cx="445.3333333333333" cy="361" r="3.5" fill="#2f3c9e"/><text x="457.3333333333333" y="365" font-size="14" fill="#1f2328" font-weight="normal" text-anchor="start">Weekly and at month-end</text><circle cx="445.3333333333333" cy="387" r="3.5" fill="#2f3c9e"/><text x="457.3333333333333" y="391" font-size="14" fill="#1f2328" font-weight="normal" text-anchor="start">On request</text><rect x="798.6666666666666" y="267" width="361.3333333333333" height="150" rx="10" fill="#ffffff" stroke="#d0d7de" stroke-width="1"/><rect x="798.6666666666666" y="267" width="5" height="150" rx="2" fill="#2f3c9e"/><circle cx="830.6666666666666" cy="297" r="14" fill="#2f3c9e" opacity="0.12"/><text x="830.6666666666666" y="302" font-size="14" fill="#2f3c9e" font-weight="bold" text-anchor="middle">⇩</text><text x="852.6666666666666" y="302" font-size="13" fill="#2f3c9e" font-weight="bold" text-anchor="start" letter-spacing="1">DATA IN</text><rect x="820.6666666666666" y="325" width="152.4" height="24" rx="6" fill="#eef0fb" stroke="none" stroke-width="1"/><text x="829.6666666666666" y="341.5" font-size="12" fill="#2f3c9e" font-weight="bold" text-anchor="start">BankTransaction.list</text><rect x="979.0666666666666" y="325" width="125.52000000000001" height="24" rx="6" fill="#eef0fb" stroke="none" stroke-width="1"/><text x="988.0666666666666" y="341.5" font-size="12" fill="#2f3c9e" font-weight="bold" text-anchor="start">PaymentMade.list</text><rect x="820.6666666666666" y="355" width="85.2" height="24" rx="6" fill="#eef0fb" stroke="none" stroke-width="1"/><text x="829.6666666666666" y="371.5" font-size="12" fill="#2f3c9e" font-weight="bold" text-anchor="start">Party.list</text><rect x="911.8666666666667" y="355" width="125.52000000000001" height="24" rx="6" fill="#eef0fb" stroke="none" stroke-width="1"/><text x="920.8666666666667" y="371.5" font-size="12" fill="#2f3c9e" font-weight="bold" text-anchor="start">BankAccount.list</text><text x="40" y="447" font-size="13" fill="#2f3c9e" font-weight="bold" text-anchor="start" letter-spacing="1">HOW THE AGENT ANSWERS IT</text><line x1="270" y1="443" x2="1160" y2="443" stroke="#d0d7de"/><rect x="40.0" y="463" width="353.3333333333333" height="102" rx="12" fill="#ffffff" stroke="#d0d7de" stroke-width="1"/><circle cx="66.0" cy="489" r="14" fill="#2f3c9e"/><text x="66.0" y="494" font-size="14" fill="#ffffff" font-weight="bold" text-anchor="middle">1</text><text x="54.0" y="527" font-size="15" fill="#1f2328" font-weight="bold" text-anchor="start">Window</text><text x="54.0" y="549" font-size="14" fill="#57606a" font-weight="normal" text-anchor="start">Bank date range per account</text><path d="M397.3333333333333 514.0 L417.3333333333333 514.0" stroke="#2f3c9e" stroke-width="2.5"/><path d="M413.3333333333333 508.0 L421.3333333333333 514.0 L413.3333333333333 520.0" fill="none" stroke="#2f3c9e" stroke-width="2.5"/><rect x="423.3333333333333" y="463" width="353.3333333333333" height="102" rx="12" fill="#ffffff" stroke="#d0d7de" stroke-width="1"/><circle cx="449.3333333333333" cy="489" r="14" fill="#2f3c9e"/><text x="449.3333333333333" y="494" font-size="14" fill="#ffffff" font-weight="bold" text-anchor="middle">2</text><text x="437.3333333333333" y="527" font-size="15" fill="#1f2328" font-weight="bold" text-anchor="start">Match</text><text x="437.3333333333333" y="549" font-size="14" fill="#57606a" font-weight="normal" text-anchor="start">Debit ↔ payment</text><path d="M780.6666666666666 514.0 L800.6666666666666 514.0" stroke="#2f3c9e" stroke-width="2.5"/><path d="M796.6666666666666 508.0 L804.6666666666666 514.0 L796.6666666666666 520.0" fill="none" stroke="#2f3c9e" stroke-width="2.5"/><rect x="806.6666666666666" y="463" width="353.3333333333333" height="102" rx="12" fill="#ffffff" stroke="#d0d7de" stroke-width="1"/><circle cx="832.6666666666666" cy="489" r="14" fill="#2f3c9e"/><text x="832.6666666666666" y="494" font-size="14" fill="#ffffff" font-weight="bold" text-anchor="middle">3</text><text x="820.6666666666666" y="527" font-size="15" fill="#1f2328" font-weight="bold" text-anchor="start">Unrecorded debit</text><text x="820.6666666666666" y="549" font-size="14" fill="#57606a" font-weight="normal" text-anchor="start">Vendor payee, no payment</text><rect x="40.0" y="581" width="353.3333333333333" height="102" rx="12" fill="#ffffff" stroke="#d0d7de" stroke-width="1"/><circle cx="66.0" cy="607" r="14" fill="#2f3c9e"/><text x="66.0" y="612" font-size="14" fill="#ffffff" font-weight="bold" text-anchor="middle">4</text><text x="54.0" y="645" font-size="15" fill="#1f2328" font-weight="bold" text-anchor="start">Not in bank</text><text x="54.0" y="667" font-size="14" fill="#57606a" font-weight="normal" text-anchor="start">Payment without debit</text><path d="M397.3333333333333 632.0 L417.3333333333333 632.0" stroke="#2f3c9e" stroke-width="2.5"/><path d="M413.3333333333333 626.0 L421.3333333333333 632.0 L413.3333333333333 638.0" fill="none" stroke="#2f3c9e" stroke-width="2.5"/><rect x="423.3333333333333" y="581" width="353.3333333333333" height="102" rx="12" fill="#ffffff" stroke="#d0d7de" stroke-width="1"/><circle cx="449.3333333333333" cy="607" r="14" fill="#2f3c9e"/><text x="449.3333333333333" y="612" font-size="14" fill="#ffffff" font-weight="bold" text-anchor="middle">5</text><text x="437.3333333333333" y="645" font-size="15" fill="#1f2328" font-weight="bold" text-anchor="start">Phantom match</text><text x="437.3333333333333" y="667" font-size="14" fill="#57606a" font-weight="normal" text-anchor="start">Matched, no voucher</text><path d="M780.6666666666666 632.0 L800.6666666666666 632.0" stroke="#2f3c9e" stroke-width="2.5"/><path d="M796.6666666666666 626.0 L804.6666666666666 632.0 L796.6666666666666 638.0" fill="none" stroke="#2f3c9e" stroke-width="2.5"/><rect x="806.6666666666666" y="581" width="353.3333333333333" height="102" rx="12" fill="#ffffff" stroke="#d0d7de" stroke-width="1"/><circle cx="832.6666666666666" cy="607" r="14" fill="#2f3c9e"/><text x="832.6666666666666" y="612" font-size="14" fill="#ffffff" font-weight="bold" text-anchor="middle">6</text><text x="820.6666666666666" y="645" font-size="15" fill="#1f2328" font-weight="bold" text-anchor="start">Unidentified</text><text x="820.6666666666666" y="667" font-size="14" fill="#57606a" font-weight="normal" text-anchor="start">No payee, &gt; 7 days</text><rect x="40" y="709" width="551.0" height="150" rx="10" fill="#ffffff" stroke="#d0d7de" stroke-width="1"/><rect x="40" y="709" width="5" height="150" rx="2" fill="#2f3c9e"/><circle cx="72" cy="739" r="14" fill="#2f3c9e" opacity="0.12"/><text x="72" y="744" font-size="14" fill="#2f3c9e" font-weight="bold" text-anchor="middle">!</text><text x="94" y="744" font-size="13" fill="#2f3c9e" font-weight="bold" text-anchor="start" letter-spacing="1">FINDINGS IT EMITS</text><rect x="62" y="768" width="8" height="8" rx="2" fill="#2f3c9e"/><text x="78" y="777" font-size="13" fill="#1f2328" font-weight="normal" text-anchor="start">bank_debit_unrecorded</text><rect x="62" y="794" width="8" height="8" rx="2" fill="#2f3c9e"/><text x="78" y="803" font-size="13" fill="#1f2328" font-weight="normal" text-anchor="start">payment_not_in_bank</text><rect x="62" y="820" width="8" height="8" rx="2" fill="#2f3c9e"/><text x="78" y="829" font-size="13" fill="#1f2328" font-weight="normal" text-anchor="start">match_without_voucher</text><rect x="609.0" y="709" width="551.0" height="150" rx="10" fill="#e8f5ec" stroke="none" stroke-width="1"/><text x="631.0" y="744" font-size="13" fill="#1a7f37" font-weight="bold" text-anchor="start" letter-spacing="1">LIVE EVIDENCE · 4 OCT 2026</text><text x="631.0" y="803" font-size="40" fill="#1a7f37" font-weight="bold" text-anchor="start">₹56.21 lakh</text><text x="631.0" y="829" font-size="14" fill="#1f2328" font-weight="normal" text-anchor="start">Vendor debits with no AP payment; 77 AP payments aren&#x27;t in the bank.</text><rect x="40" y="877" width="1120" height="39" rx="8" fill="#f6f8fa" stroke="none" stroke-width="1"/><text x="60" y="901" font-size="13" fill="#57606a" font-weight="normal" text-anchor="start">Limits: Cannot categorise bank lines.</text><line x1="40" y1="934" x2="1160" y2="934" stroke="#d0d7de"/><text x="40" y="958" font-size="12" fill="#57606a" font-weight="normal" text-anchor="start">Team 03 · Seat 03 Payables &amp; Tax · Suryodaya Precision Works Pvt. Ltd.</text><text x="1160" y="958" font-size="12" fill="#57606a" font-weight="normal" text-anchor="end">Spec: IN/uc-43-bank-to-payables-reconciliation.md</text></svg>
