<svg xmlns="http://www.w3.org/2000/svg" width="1200" height="956" viewBox="0 0 1200 956" font-family="'Segoe UI', 'Helvetica Neue', Arial, sans-serif" role="img" aria-labelledby="t d"><title id="t">US-01 — Period sales and use tax liability</title><desc id="d">What is our sales and use tax liability this period, by jurisdiction?</desc><rect width="1200" height="956" fill="#fbfcfd"/><rect x="0" y="0" width="1200" height="122" fill="#0b6e69"/><text x="40" y="38" font-size="14" fill="#ffffff" font-weight="bold" text-anchor="start" letter-spacing="1.5">US-01  ·  US · SALES &amp; USE TAX</text><text x="40" y="74" font-size="26" fill="#ffffff" font-weight="bold" text-anchor="start">Period sales and use tax liability</text><rect x="930" y="22" width="230" height="78" rx="12" fill="#ffffff" stroke="none" stroke-width="1"/><text x="1045.0" y="50" font-size="15" fill="#1a7f37" font-weight="bold" text-anchor="middle" letter-spacing="1.5">BUILDABLE</text><text x="1045.0" y="70" font-size="12" fill="#57606a" font-weight="normal" text-anchor="middle">Buildable · platform report is a</text><text x="1045.0" y="86" font-size="12" fill="#57606a" font-weight="normal" text-anchor="middle">working oracle</text><circle cx="948" cy="45" r="6" fill="#1a7f37"/><rect x="40" y="140" width="73.76" height="24" rx="12" fill="#e7f4f3" stroke="none" stroke-width="1"/><text x="76.88" y="156.5" font-size="12" fill="#0b6e69" font-weight="bold" text-anchor="middle">Core tax</text><rect x="121.76" y="140" width="134.24" height="24" rx="12" fill="#f0f2f4" stroke="none" stroke-width="1"/><text x="188.88" y="156.5" font-size="12" fill="#1f2328" font-weight="bold" text-anchor="middle">Domains: all five</text><rect x="264.0" y="140" width="194.72000000000003" height="24" rx="12" fill="#f0f2f4" stroke="none" stroke-width="1"/><text x="361.36" y="156.5" font-size="12" fill="#1f2328" font-weight="bold" text-anchor="middle">Playbook: period-liability</text><rect x="466.72" y="140" width="93.92" height="24" rx="12" fill="#f0f2f4" stroke="none" stroke-width="1"/><text x="513.6800000000001" y="156.5" font-size="12" fill="#1f2328" font-weight="bold" text-anchor="middle">Twin: UC-23</text><rect x="40" y="182" width="1120" height="63" rx="14" fill="#e7f4f3" stroke="none" stroke-width="1"/><text x="66" y="228" font-size="38" fill="#0b6e69" font-weight="bold" text-anchor="start">?</text><text x="110" y="219" font-size="21" fill="#1f2328" font-weight="normal" text-anchor="start" font-style="italic">“What is our sales and use tax liability this period, by jurisdiction?”</text><rect x="40.0" y="267" width="361.3333333333333" height="210" rx="10" fill="#ffffff" stroke="#d0d7de" stroke-width="1"/><rect x="40.0" y="267" width="5" height="210" rx="2" fill="#0b6e69"/><circle cx="72.0" cy="297" r="14" fill="#0b6e69" opacity="0.12"/><text x="72.0" y="302" font-size="14" fill="#0b6e69" font-weight="bold" text-anchor="middle">§</text><text x="94.0" y="302" font-size="13" fill="#0b6e69" font-weight="bold" text-anchor="start" letter-spacing="1">BASIS</text><circle cx="66.0" cy="335" r="3.5" fill="#0b6e69"/><text x="78.0" y="339" font-size="14" fill="#1f2328" font-weight="normal" text-anchor="start">Sales tax: collected from customers,</text><text x="78.0" y="359" font-size="14" fill="#1f2328" font-weight="normal" text-anchor="start">remitted to each state</text><circle cx="66.0" cy="381" r="3.5" fill="#0b6e69"/><text x="78.0" y="385" font-size="14" fill="#1f2328" font-weight="normal" text-anchor="start">Use tax: self-assessed when a vendor</text><text x="78.0" y="405" font-size="14" fill="#1f2328" font-weight="normal" text-anchor="start">charged none</text><circle cx="66.0" cy="427" r="3.5" fill="#0b6e69"/><text x="78.0" y="431" font-size="14" fill="#1f2328" font-weight="normal" text-anchor="start">Misstatement: tax, penalty and interest</text><text x="78.0" y="451" font-size="14" fill="#1f2328" font-weight="normal" text-anchor="start">per state</text><rect x="419.3333333333333" y="267" width="361.3333333333333" height="210" rx="10" fill="#ffffff" stroke="#d0d7de" stroke-width="1"/><rect x="419.3333333333333" y="267" width="5" height="210" rx="2" fill="#0b6e69"/><circle cx="451.3333333333333" cy="297" r="14" fill="#0b6e69" opacity="0.12"/><text x="451.3333333333333" y="302" font-size="14" fill="#0b6e69" font-weight="bold" text-anchor="middle">⏱</text><text x="473.3333333333333" y="302" font-size="13" fill="#0b6e69" font-weight="bold" text-anchor="start" letter-spacing="1">TRIGGER</text><circle cx="445.3333333333333" cy="335" r="3.5" fill="#0b6e69"/><text x="457.3333333333333" y="339" font-size="14" fill="#1f2328" font-weight="normal" text-anchor="start">Monthly, after month end and before each</text><text x="457.3333333333333" y="359" font-size="14" fill="#1f2328" font-weight="normal" text-anchor="start">due date</text><circle cx="445.3333333333333" cy="381" r="3.5" fill="#0b6e69"/><text x="457.3333333333333" y="385" font-size="14" fill="#1f2328" font-weight="normal" text-anchor="start">On request, any date range</text><circle cx="445.3333333333333" cy="407" r="3.5" fill="#0b6e69"/><text x="457.3333333333333" y="411" font-size="14" fill="#1f2328" font-weight="normal" text-anchor="start">Filing period per jurisdiction</text><rect x="798.6666666666666" y="267" width="361.3333333333333" height="210" rx="10" fill="#ffffff" stroke="#d0d7de" stroke-width="1"/><rect x="798.6666666666666" y="267" width="5" height="210" rx="2" fill="#0b6e69"/><circle cx="830.6666666666666" cy="297" r="14" fill="#0b6e69" opacity="0.12"/><text x="830.6666666666666" y="302" font-size="14" fill="#0b6e69" font-weight="bold" text-anchor="middle">⇩</text><text x="852.6666666666666" y="302" font-size="13" fill="#0b6e69" font-weight="bold" text-anchor="start" letter-spacing="1">DATA IN</text><rect x="820.6666666666666" y="325" width="98.64000000000001" height="24" rx="6" fill="#e7f4f3" stroke="none" stroke-width="1"/><text x="829.6666666666666" y="341.5" font-size="12" fill="#0b6e69" font-weight="bold" text-anchor="start">Invoice.list</text><rect x="925.3066666666666" y="325" width="78.48" height="24" rx="6" fill="#e7f4f3" stroke="none" stroke-width="1"/><text x="934.3066666666666" y="341.5" font-size="12" fill="#0b6e69" font-weight="bold" text-anchor="start">Bill.list</text><rect x="820.6666666666666" y="355" width="152.4" height="24" rx="6" fill="#e7f4f3" stroke="none" stroke-width="1"/><text x="829.6666666666666" y="371.5" font-size="12" fill="#0b6e69" font-weight="bold" text-anchor="start">TaxJurisdiction.list</text><rect x="979.0666666666666" y="355" width="125.52000000000001" height="24" rx="6" fill="#e7f4f3" stroke="none" stroke-width="1"/><text x="988.0666666666666" y="371.5" font-size="12" fill="#0b6e69" font-weight="bold" text-anchor="start">liability report</text><text x="40" y="507" font-size="13" fill="#0b6e69" font-weight="bold" text-anchor="start" letter-spacing="1">HOW THE AGENT ANSWERS IT</text><line x1="270" y1="503" x2="1160" y2="503" stroke="#d0d7de"/><rect x="40.0" y="523" width="200.0" height="118" rx="12" fill="#ffffff" stroke="#d0d7de" stroke-width="1"/><circle cx="66.0" cy="549" r="14" fill="#0b6e69"/><text x="66.0" y="554" font-size="14" fill="#ffffff" font-weight="bold" text-anchor="middle">1</text><text x="54.0" y="587" font-size="14" fill="#1f2328" font-weight="bold" text-anchor="start">Period invoices</text><text x="54.0" y="609" font-size="13" fill="#57606a" font-weight="normal" text-anchor="start">Excluding draft and void</text><path d="M244.0 582.0 L264.0 582.0" stroke="#0b6e69" stroke-width="2.5"/><path d="M260.0 576.0 L268.0 582.0 L260.0 588.0" fill="none" stroke="#0b6e69" stroke-width="2.5"/><rect x="270.0" y="523" width="200.0" height="118" rx="12" fill="#ffffff" stroke="#d0d7de" stroke-width="1"/><circle cx="296.0" cy="549" r="14" fill="#0b6e69"/><text x="296.0" y="554" font-size="14" fill="#ffffff" font-weight="bold" text-anchor="middle">2</text><text x="284.0" y="587" font-size="14" fill="#1f2328" font-weight="bold" text-anchor="start">Sales tax</text><text x="284.0" y="609" font-size="13" fill="#57606a" font-weight="normal" text-anchor="start">Σ taxes[] by</text><text x="284.0" y="627" font-size="13" fill="#57606a" font-weight="normal" text-anchor="start">jurisdiction, non-exempt</text><path d="M474.0 582.0 L494.0 582.0" stroke="#0b6e69" stroke-width="2.5"/><path d="M490.0 576.0 L498.0 582.0 L490.0 588.0" fill="none" stroke="#0b6e69" stroke-width="2.5"/><rect x="500.0" y="523" width="200.0" height="118" rx="12" fill="#ffffff" stroke="#d0d7de" stroke-width="1"/><circle cx="526.0" cy="549" r="14" fill="#0b6e69"/><text x="526.0" y="554" font-size="14" fill="#ffffff" font-weight="bold" text-anchor="middle">3</text><text x="514.0" y="587" font-size="14" fill="#1f2328" font-weight="bold" text-anchor="start">Use tax</text><text x="514.0" y="609" font-size="13" fill="#57606a" font-weight="normal" text-anchor="start">Σ use_tax_accrued + US-02</text><text x="514.0" y="627" font-size="13" fill="#57606a" font-weight="normal" text-anchor="start">findings</text><path d="M704.0 582.0 L724.0 582.0" stroke="#0b6e69" stroke-width="2.5"/><path d="M720.0 576.0 L728.0 582.0 L720.0 588.0" fill="none" stroke="#0b6e69" stroke-width="2.5"/><rect x="730.0" y="523" width="200.0" height="118" rx="12" fill="#ffffff" stroke="#d0d7de" stroke-width="1"/><circle cx="756.0" cy="549" r="14" fill="#0b6e69"/><text x="756.0" y="554" font-size="14" fill="#ffffff" font-weight="bold" text-anchor="middle">4</text><text x="744.0" y="587" font-size="14" fill="#1f2328" font-weight="bold" text-anchor="start">Reconcile</text><text x="744.0" y="609" font-size="13" fill="#57606a" font-weight="normal" text-anchor="start">Match the platform report</text><text x="744.0" y="627" font-size="13" fill="#57606a" font-weight="normal" text-anchor="start">to the cent</text><path d="M934.0 582.0 L954.0 582.0" stroke="#0b6e69" stroke-width="2.5"/><path d="M950.0 576.0 L958.0 582.0 L950.0 588.0" fill="none" stroke="#0b6e69" stroke-width="2.5"/><rect x="960.0" y="523" width="200.0" height="118" rx="12" fill="#ffffff" stroke="#d0d7de" stroke-width="1"/><circle cx="986.0" cy="549" r="14" fill="#0b6e69"/><text x="986.0" y="554" font-size="14" fill="#ffffff" font-weight="bold" text-anchor="middle">5</text><text x="974.0" y="587" font-size="14" fill="#1f2328" font-weight="bold" text-anchor="start">Emit</text><text x="974.0" y="609" font-size="13" fill="#57606a" font-weight="normal" text-anchor="start">One row per jurisdiction</text><text x="974.0" y="627" font-size="13" fill="#57606a" font-weight="normal" text-anchor="start">+ total</text><rect x="40" y="667" width="551.0" height="170" rx="10" fill="#ffffff" stroke="#d0d7de" stroke-width="1"/><rect x="40" y="667" width="5" height="170" rx="2" fill="#0b6e69"/><circle cx="72" cy="697" r="14" fill="#0b6e69" opacity="0.12"/><text x="72" y="702" font-size="14" fill="#0b6e69" font-weight="bold" text-anchor="middle">!</text><text x="94" y="702" font-size="13" fill="#0b6e69" font-weight="bold" text-anchor="start" letter-spacing="1">FINDINGS IT EMITS</text><rect x="62" y="726" width="8" height="8" rx="2" fill="#0b6e69"/><text x="78" y="735" font-size="13" fill="#1f2328" font-weight="normal" text-anchor="start">liability row per jurisdiction + total</text><rect x="62" y="752" width="8" height="8" rx="2" fill="#0b6e69"/><text x="78" y="761" font-size="13" fill="#1f2328" font-weight="normal" text-anchor="start">reconciliation vs the platform report</text><rect x="62" y="778" width="8" height="8" rx="2" fill="#0b6e69"/><text x="78" y="787" font-size="13" fill="#1f2328" font-weight="normal" text-anchor="start">data_quality rows</text><rect x="609.0" y="667" width="551.0" height="170" rx="10" fill="#e8f5ec" stroke="none" stroke-width="1"/><text x="631.0" y="702" font-size="13" fill="#1a7f37" font-weight="bold" text-anchor="start" letter-spacing="1">LIVE EVIDENCE · 3 OCT 2026</text><text x="631.0" y="761" font-size="40" fill="#1a7f37" font-weight="bold" text-anchor="start">$226,488.27</text><text x="631.0" y="787" font-size="14" fill="#1f2328" font-weight="normal" text-anchor="start">YTD liability; our recompute matches the platform report to the cent</text><text x="631.0" y="807" font-size="14" fill="#1f2328" font-weight="normal" text-anchor="start">in all 4 jurisdictions. Use tax accrued: $0.</text><rect x="40" y="855" width="1120" height="39" rx="8" fill="#f6f8fa" stroke="none" stroke-width="1"/><text x="60" y="879" font-size="13" fill="#57606a" font-weight="normal" text-anchor="start">Limits: Computes and explains; does not file or pay.</text><line x1="40" y1="912" x2="1160" y2="912" stroke="#d0d7de"/><text x="40" y="936" font-size="12" fill="#57606a" font-weight="normal" text-anchor="start">Team 03 · Seat 03 Payables &amp; Tax · Keystone Precision Works LLC</text><text x="1160" y="936" font-size="12" fill="#57606a" font-weight="normal" text-anchor="end">Spec: US/us-01-period-sales-use-tax-liability.md</text></svg>
